<!DOCTYPE svg PUBLIC "-//W3C//DTD SVG 1.1//EN" "http://www.w3.org/Graphics/SVG/1.1/DTD/svg11.dtd">
<!-- Uploaded to: SVG Repo, www.svgrepo.com, Transformed by: SVG Repo Mixer Tools -->
<svg fill="#ffffff" height="800px" width="800px" version="1.1" id="Layer_1" xmlns="http://www.w3.org/2000/svg" xmlns:xlink="http://www.w3.org/1999/xlink" viewBox="0 0 512.004 512.004" xml:space="preserve" stroke="#ffffff">
<g id="SVGRepo_bgCarrier" stroke-width="0"/>
<g id="SVGRepo_tracerCarrier" stroke-linecap="round" stroke-linejoin="round"/>
<g id="SVGRepo_iconCarrier"> <g> <g> <g> <path d="M501.677,184.621l-165.76,41.621c0.832,2.219,1.237,4.544,1.877,6.805c0.661,2.304,1.472,4.523,1.92,6.891 c1.024,5.269,1.621,10.624,1.621,16.064s-0.597,10.816-1.621,16.085c-0.448,2.347-1.259,4.544-1.899,6.827 c-0.64,2.283-1.067,4.629-1.899,6.848l165.76,41.621c6.613-22.699,10.325-46.592,10.325-71.381S508.29,207.319,501.677,184.621z"/> <path d="M295.642,240.45c-1.963-4.843-4.8-9.365-8.491-13.333c-0.128-0.149-0.192-0.299-0.299-0.448 c-0.533-0.555-1.088-1.067-1.643-1.6c-0.085-0.085-0.213-0.107-0.299-0.192c-16.021-14.869-41.792-14.869-57.813,0 c-0.171,0.149-0.384,0.235-0.533,0.384c-0.469,0.448-0.896,0.875-1.344,1.323c-0.128,0.171-0.213,0.363-0.363,0.533 c-3.691,3.968-6.528,8.491-8.491,13.355c-0.171,0.427-0.256,0.896-0.427,1.344c-0.725,1.984-1.365,4.011-1.792,6.101 c-0.491,2.624-0.811,5.312-0.811,8.085s0.32,5.461,0.811,8.085c0.405,2.069,1.067,4.053,1.771,6.037 c0.171,0.469,0.277,0.96,0.448,1.429c1.963,4.843,4.8,9.387,8.491,13.355c0.128,0.128,0.192,0.277,0.299,0.427 c0.469,0.469,0.917,0.96,1.408,1.408c0.171,0.149,0.363,0.235,0.533,0.384c16.021,14.869,41.792,14.869,57.813,0 c0.149-0.149,0.363-0.235,0.512-0.363c0.469-0.448,0.896-0.896,1.344-1.344c0.149-0.171,0.213-0.363,0.363-0.512 c3.691-3.989,6.549-8.512,8.512-13.376c0.171-0.427,0.256-0.896,0.427-1.344c0.725-2.005,1.365-4.011,1.792-6.101 c0.491-2.624,0.811-5.312,0.811-8.085s-0.32-5.461-0.811-8.085c-0.427-2.069-1.067-4.053-1.792-6.037 C295.919,241.41,295.812,240.919,295.642,240.45z"/> <path d="M174.21,278.957c-0.661-2.304-1.472-4.523-1.92-6.891c-1.024-5.269-1.621-10.624-1.621-16.064 c0-5.397,0.597-10.731,1.621-15.957c0.427-2.283,1.195-4.416,1.792-6.635c0.619-2.197,1.024-4.48,1.813-6.635L9.389,188.226 c-5.952,21.632-9.387,44.288-9.387,67.776c0,24.789,3.712,48.683,10.325,71.36l165.76-41.6 C175.255,283.543,174.85,281.218,174.21,278.957z"/> <path d="M364.137,24.288l-37.099,160.213l159.083-39.936C460.457,91.787,417.321,49.205,364.137,24.288z"/> <path d="M367.445,486.123c51.648-25.131,93.547-67.008,118.677-118.677l-158.464-39.787L367.445,486.123z"/> <path d="M279.511,337.626c-2.539,0.747-5.035,1.6-7.659,2.112c-3.371,0.619-6.784,0.811-10.197,1.024 c-1.899,0.128-3.712,0.576-5.653,0.576c-1.941,0-3.755-0.448-5.675-0.576c-3.413-0.213-6.805-0.405-10.176-1.024 c-2.624-0.512-5.12-1.365-7.659-2.112c-2.069-0.597-4.224-0.939-6.229-1.707l-41.621,165.76 c22.677,6.592,46.571,10.325,71.36,10.325s48.683-3.733,71.36-10.325l-41.621-165.76 C283.735,336.687,281.581,337.028,279.511,337.626z"/> <path d="M144.561,486.121l39.787-158.464L25.884,367.443C51.014,419.113,92.892,460.99,144.561,486.121z"/> <path d="M232.663,174.315c2.475-0.704,4.864-1.557,7.424-2.027c3.733-0.725,7.552-0.96,11.371-1.152 c1.536-0.085,2.987-0.469,4.544-0.469c1.963,0,3.797,0.448,5.717,0.576c3.328,0.235,6.656,0.405,9.92,1.003 c2.603,0.491,5.035,1.323,7.531,2.027c2.027,0.576,4.117,0.896,6.08,1.621L323.778,9.408C302.146,3.456,279.49,0,256.002,0 c-24.789,0-48.683,3.733-71.36,10.325l41.621,165.76C228.333,175.296,230.53,174.933,232.663,174.315z"/> <path d="M24.286,147.876l160.213,37.077L144.563,25.892C91.806,51.556,49.225,94.692,24.286,147.876z"/> </g> </g> </g> </g>
</svg>